<svg width="164" height="57" viewBox="0 0 164 57" fill="none" xmlns="http://www.w3.org/2000/svg">
<circle cx="22.6734" cy="25.6738" r="21.5" transform="rotate(0.444391 22.6734 25.6738)" stroke="white" stroke-width="2"/>
<path d="M39.2461 25.0408C39.1754 34.1532 31.731 41.483 22.6186 41.4123C13.5062 41.3416 6.17637 33.8972 6.24705 24.7848C6.31772 15.6724 13.7621 8.34261 22.8745 8.41329C31.9869 8.48396 39.3167 15.9283 39.2461 25.0408Z" stroke="white" stroke-width="2"/>
<path d="M32.3657 16.0165L32.3656 31.5165H27.5004C24.5004 26.5165 27.5004 24.0165 29.0004 20.0165C31.5004 15.5165 30.7744 16.0165 32.3657 16.0165Z" fill="white" stroke="white" stroke-width="2" stroke-linecap="round" stroke-linejoin="round"/>
<path d="M28.3652 31.5166H32.3652V47.0118C32.3652 47.9413 32.1599 48.8328 31.7944 49.4901C31.429 50.1474 30.9333 50.5166 30.4165 50.5166H30.314C29.7971 50.5166 29.3015 50.1474 28.936 49.4901C28.5706 48.8328 28.3652 47.9413 28.3652 47.0118V31.5166Z" fill="white" stroke="white" stroke-width="2" stroke-linecap="round" stroke-linejoin="round"/>
<path d="M18.5352 50.9162C17.9338 50.9162 17.357 50.6312 16.9317 50.1239C16.5065 49.6167 16.2676 48.9287 16.2676 48.2113L17.2535 33.5107H19.9154L20.9014 48.2113C20.9016 48.5766 20.8399 48.9382 20.7198 49.2743C20.5998 49.6104 20.4238 49.914 20.2027 50.1667C19.9816 50.4195 19.7199 50.6162 19.4333 50.745C19.1467 50.8738 18.8411 50.932 18.5352 50.9162Z" fill="white" stroke="white" stroke-width="2" stroke-linecap="round" stroke-linejoin="round"/>
<path d="M22.9718 28.2185C22.812 29.5013 22.271 30.673 21.4476 31.52C20.6242 32.3669 19.5732 32.8328 18.4859 32.8328C17.3987 32.8328 16.3476 32.3669 15.5242 31.52C14.7008 30.673 14.1599 29.5013 14 28.2185H22.9718Z" fill="white" stroke="white" stroke-width="2" stroke-linecap="round" stroke-linejoin="round"/>
<path d="M14 18.4573V28.2185" stroke="white" stroke-width="2" stroke-linecap="round" stroke-linejoin="round"/>
<path d="M18.4365 18.4573V27.9832" stroke="white" stroke-width="2" stroke-linecap="round" stroke-linejoin="round"/>
<path d="M22.9717 18.4573V28.2185" stroke="white" stroke-width="2" stroke-linecap="round" stroke-linejoin="round"/>
<path d="M76.8516 22.9946C76.2949 20.314 75.2695 18.2339 73.7754 16.7544C72.2959 15.2749 70.5161 14.5352 68.436 14.5352C66.3999 14.5352 64.8179 15.0186 63.6899 15.9854C62.5767 16.9521 62.02 18.2412 62.02 19.8525C62.02 20.7461 62.1006 21.4858 62.2617 22.0718C62.4229 22.6577 62.7524 23.229 63.2505 23.7856C63.7485 24.3276 64.4736 24.811 65.4258 25.2358C66.3779 25.646 67.623 26.0415 69.1611 26.4224C69.9961 26.6274 70.7212 26.8179 71.3364 26.9937C71.9663 27.1694 72.6548 27.4111 73.4019 27.7188C74.1636 28.0264 74.8154 28.356 75.3574 28.7075C75.9141 29.0591 76.4634 29.4985 77.0054 30.0259C77.562 30.5386 78.0088 31.1099 78.3457 31.7397C78.6973 32.3696 78.9756 33.1167 79.1807 33.981C79.4004 34.8306 79.5103 35.7607 79.5103 36.7715C79.5103 38.1191 79.2612 39.3643 78.7632 40.5068C78.2651 41.6348 77.6133 42.5869 76.8076 43.3633C76.002 44.1396 75.0718 44.7988 74.0171 45.3408C72.9624 45.8828 71.8931 46.2783 70.8091 46.5273C69.7251 46.7764 68.6484 46.9009 67.5791 46.9009C64.3271 46.9009 60.8628 46.0586 57.186 44.374C57.2593 42.792 57.2959 41.8179 57.2959 41.4517C57.2959 39.064 57.0981 36.6836 56.7026 34.3105C56.8638 34.208 57.0249 34.1567 57.186 34.1567C57.3911 34.1567 57.5742 34.208 57.7354 34.3105C58.043 36.2002 58.5483 37.8701 59.2515 39.3203C59.9692 40.7705 60.7896 41.9204 61.7124 42.77C62.6353 43.605 63.5874 44.2349 64.5688 44.6597C65.5649 45.0698 66.5684 45.2749 67.5791 45.2749C69.8789 45.2749 71.644 44.6816 72.8745 43.4951C74.1196 42.2939 74.7422 40.7119 74.7422 38.749C74.7422 36.7715 74.2808 35.2847 73.3579 34.2886C72.4497 33.2778 70.7065 32.4575 68.1284 31.8276C64.9058 31.022 62.3862 29.8354 60.5698 28.2681C58.7681 26.686 57.8672 24.5986 57.8672 22.0059C57.8672 20.6436 58.0869 19.4277 58.5264 18.3584C58.9805 17.2744 59.5591 16.4102 60.2622 15.7656C60.98 15.1064 61.8149 14.5645 62.7671 14.1396C63.7192 13.7002 64.6567 13.3999 65.5796 13.2388C66.5171 13.063 67.4692 12.9751 68.436 12.9751C71.3364 12.9751 74.354 13.6489 77.4888 14.9966C77.4009 15.8608 77.3569 16.7617 77.3569 17.6992C77.3569 19.8965 77.5327 21.6616 77.8843 22.9946C77.6938 23.0679 77.5327 23.1045 77.4009 23.1045C77.2544 23.1045 77.0713 23.0679 76.8516 22.9946ZM105.526 26.9717C105.467 26.7373 105.438 26.5688 105.438 26.4663C105.438 26.2905 105.467 26.1147 105.526 25.939C107.503 26.0269 108.792 26.0708 109.393 26.0708C110.785 26.0708 112.572 26.0269 114.754 25.939C114.813 26.1147 114.842 26.2612 114.842 26.3784C114.842 26.4517 114.813 26.6494 114.754 26.9717C113.773 27.0889 113.033 27.3086 112.535 27.6309C112.052 27.9531 111.62 28.4219 111.239 29.0371C110.624 29.9893 109.789 31.4688 108.734 33.4756C107.679 35.4678 106.551 37.3354 105.35 39.0786C105.541 39.2983 105.899 39.7744 106.427 40.5068C106.969 41.2246 107.408 41.7812 107.745 42.1768C108.097 42.5723 108.565 42.9604 109.151 43.3413C109.752 43.7075 110.36 43.8906 110.975 43.8906C111.766 43.8906 112.403 43.6489 112.887 43.1655C113.385 42.6675 113.824 41.9497 114.205 41.0122C114.688 41.0122 115.033 41.1001 115.238 41.2759C115.062 42.0229 114.85 42.6748 114.601 43.2314C114.366 43.7881 114.037 44.3521 113.612 44.9233C113.187 45.48 112.608 45.9121 111.876 46.2197C111.158 46.5273 110.316 46.6812 109.349 46.6812C108.954 46.6812 108.631 46.6665 108.382 46.6372C108.148 46.6226 107.782 46.5347 107.284 46.3735C106.8 46.2271 106.354 46.0146 105.943 45.7363C105.533 45.4434 105.042 45.0039 104.471 44.418C103.915 43.8174 103.365 43.0996 102.823 42.2646C101.812 43.2021 100.838 43.9858 99.9009 44.6157C98.9634 45.231 98.0918 45.6851 97.2861 45.978C96.4805 46.2563 95.792 46.4395 95.2207 46.5273C94.6494 46.6299 94.0488 46.6812 93.4189 46.6812C92.1885 46.6812 91.0752 46.5054 90.0791 46.1538C89.0977 45.8022 88.292 45.3555 87.6621 44.8135C87.0322 44.2568 86.5049 43.6196 86.0801 42.9019C85.6553 42.1694 85.355 41.4443 85.1792 40.7266C85.0034 40.0088 84.9155 39.291 84.9155 38.5732C84.9155 38.0312 84.9668 37.4673 85.0693 36.8813C85.1865 36.2954 85.4062 35.6289 85.7285 34.8818C86.0508 34.1201 86.4683 33.395 86.981 32.7065C87.4937 32.0181 88.1968 31.3149 89.0903 30.5972C89.9839 29.8647 91.0093 29.2275 92.1665 28.6855C91.4634 27.9971 90.9141 27.4331 90.5186 26.9937C90.1377 26.5542 89.7422 26.0342 89.332 25.4336C88.9365 24.8184 88.6509 24.1885 88.4751 23.5439C88.314 22.8848 88.2334 22.1523 88.2334 21.3467C88.2334 19.501 88.9438 17.9482 90.3647 16.6885C91.7856 15.4141 93.5215 14.7769 95.5723 14.7769C97.5498 14.7769 99.1099 15.2749 100.252 16.271C101.395 17.2671 101.966 18.7612 101.966 20.7534C101.966 22.3647 101.512 23.7271 100.604 24.8403C99.6958 25.9536 98.3628 27.0083 96.605 28.0044C98.2163 29.6304 99.5493 31.1099 100.604 32.4429C101.659 33.7759 102.94 35.5337 104.449 37.7163C106.573 34.4497 107.752 31.5566 107.987 29.0371C108.016 28.8613 108.023 28.6343 108.009 28.356C108.009 27.9751 107.818 27.6748 107.438 27.4551C107.057 27.2354 106.419 27.0742 105.526 26.9717ZM101.878 40.7266C100.589 38.6318 99.3442 36.8228 98.1431 35.2993C96.9419 33.7612 95.3672 31.9741 93.4189 29.938C92.2324 30.4507 91.229 31.3809 90.4087 32.7285C89.5884 34.0762 89.1782 35.6655 89.1782 37.4966C89.1782 39.4009 89.7642 40.8584 90.936 41.8691C92.1079 42.8799 93.6094 43.3853 95.4404 43.3853C98.0771 43.3853 100.223 42.499 101.878 40.7266ZM95.4404 26.9277C96.4805 26.3857 97.4033 25.6021 98.209 24.5767C99.0293 23.5366 99.4395 22.2915 99.4395 20.8413C99.4395 19.479 99.0879 18.4609 98.3848 17.7871C97.6816 17.0986 96.8174 16.7544 95.792 16.7544C94.6055 16.7544 93.6899 17.1865 93.0454 18.0508C92.4009 18.915 92.0786 19.999 92.0786 21.3027C92.0786 23.207 93.1992 25.082 95.4404 26.9277ZM138.99 22.9946C138.434 20.314 137.408 18.2339 135.914 16.7544C134.435 15.2749 132.655 14.5352 130.575 14.5352C128.539 14.5352 126.957 15.0186 125.829 15.9854C124.715 16.9521 124.159 18.2412 124.159 19.8525C124.159 20.7461 124.239 21.4858 124.4 22.0718C124.562 22.6577 124.891 23.229 125.389 23.7856C125.887 24.3276 126.612 24.811 127.564 25.2358C128.517 25.646 129.762 26.0415 131.3 26.4224C132.135 26.6274 132.86 26.8179 133.475 26.9937C134.105 27.1694 134.793 27.4111 135.541 27.7188C136.302 28.0264 136.954 28.356 137.496 28.7075C138.053 29.0591 138.602 29.4985 139.144 30.0259C139.701 30.5386 140.147 31.1099 140.484 31.7397C140.836 32.3696 141.114 33.1167 141.319 33.981C141.539 34.8306 141.649 35.7607 141.649 36.7715C141.649 38.1191 141.4 39.3643 140.902 40.5068C140.404 41.6348 139.752 42.5869 138.946 43.3633C138.141 44.1396 137.21 44.7988 136.156 45.3408C135.101 45.8828 134.032 46.2783 132.948 46.5273C131.864 46.7764 130.787 46.9009 129.718 46.9009C126.466 46.9009 123.001 46.0586 119.325 44.374C119.398 42.792 119.435 41.8179 119.435 41.4517C119.435 39.064 119.237 36.6836 118.841 34.3105C119.002 34.208 119.164 34.1567 119.325 34.1567C119.53 34.1567 119.713 34.208 119.874 34.3105C120.182 36.2002 120.687 37.8701 121.39 39.3203C122.108 40.7705 122.928 41.9204 123.851 42.77C124.774 43.605 125.726 44.2349 126.708 44.6597C127.704 45.0698 128.707 45.2749 129.718 45.2749C132.018 45.2749 133.783 44.6816 135.013 43.4951C136.258 42.2939 136.881 40.7119 136.881 38.749C136.881 36.7715 136.419 35.2847 135.497 34.2886C134.588 33.2778 132.845 32.4575 130.267 31.8276C127.044 31.022 124.525 29.8354 122.708 28.2681C120.907 26.686 120.006 24.5986 120.006 22.0059C120.006 20.6436 120.226 19.4277 120.665 18.3584C121.119 17.2744 121.698 16.4102 122.401 15.7656C123.119 15.1064 123.954 14.5645 124.906 14.1396C125.858 13.7002 126.795 13.3999 127.718 13.2388C128.656 13.063 129.608 12.9751 130.575 12.9751C133.475 12.9751 136.493 13.6489 139.627 14.9966C139.54 15.8608 139.496 16.7617 139.496 17.6992C139.496 19.8965 139.671 21.6616 140.023 22.9946C139.833 23.0679 139.671 23.1045 139.54 23.1045C139.393 23.1045 139.21 23.0679 138.99 22.9946Z" fill="white"/>
</svg>
